# xmcd
#
# Track frame offsets: 
#        150
#        16747
#        33661
#        53368
#        72281
#        90258
#        114438
#        132350
#        148470
#        165313
#        181007
#        195179
#        214128
#        227559
#        243673
#        260322
#        277324
#        302437
#
# Disc length: 4263 seconds
#
# Revision: 3
# Processed by: cddbd v1.5.1PL2 Copyright (c) Steve Scherf et al.
# Submitted via: ExactAudioCopy v0.95b3
#
DISCID=ee10a512
DTITLE=Various Artist - Country Heat 2004
DYEAR=2004
DGENRE=Country
TTITLE0=Alan Jackson - That'd Be Alright
TTITLE1=Lonestar - My Front Porch Looking In
TTITLE2=Brooks and Dunn - Red Dirt Road
TTITLE3=Martina McBride - Concrete Angel
TTITLE4=Kenny Chesney - Big Star
TTITLE5=Keith Urban - Somebody Like You
TTITLE6=Diamond Rio - I Believe
TTITLE7=Carolyn Dawn Johnson - Just Another Girl
TTITLE8=Brad Paisley - Celebrity
TTITLE9=Paul Brandt - When You Call My Name
TTITLE10=Rachel Proctor - Days Like This
TTITLE11=Tebey - We Shook Hands (Man to Man)
TTITLE12=Tracy Byrd (feat. Andy Griggs, Montgomery Gentry, Blake Shelt
TTITLE12=on) - The Truth About Men
TTITLE13=Michelle Wright - I Will Be There
TTITLE14=Brad Johner - Free
TTITLE15=Clay Walker - A Few Questions
TTITLE16=Sara Evans - Backseat of a Greyhound Bus
TTITLE17=Aaron Lines - You Can't Hide Beautiful
EXTD=
EXTT0=
EXTT1=
EXTT2=
EXTT3=
EXTT4=
EXTT5=
EXTT6=
EXTT7=
EXTT8=
EXTT9=
EXTT10=
EXTT11=
EXTT12=
EXTT13=
EXTT14=
EXTT15=
EXTT16=
EXTT17=
PLAYORDER=
